PathFileType	4	(X/Y/Z)	C:/Users/opensim2020/Desktop/walking_exp_matlab/subject06_walking14_straight_04.trc	
DataRate	CameraRate	NumFrames	NumMarkers	Units	OrigDataRate	OrigDataStartFrame	OrigNumFrames	
100.00	100.00	4	45	mm	100.00	3058	227	
Frame#	Time	LFHD			RFHD			LBHD			RBHD			C7			T10			CLAV			STRN			RBAK			LSHO			LUPA			LELB			LFRM			LWRA			LWRB			LFIN			RSHO			RUPA			RELB			RFRM			RWRA			RWRB			RFIN			LASI			RASI			LPSI			RPSI			LTHI			LKNE			LTIB			LANK			LHEE			LTOE			RTHI			RKNE			RTIB			RANK			RHEE			RTOE			*39			*40			*41			*42			*43			*44			
		X1	Y1	Z1	X2	Y2	Z2	X3	Y3	Z3	X4	Y4	Z4	X5	Y5	Z5	X6	Y6	Z6	X7	Y7	Z7	X8	Y8	Z8	X9	Y9	Z9	X10	Y10	Z10	X11	Y11	Z11	X12	Y12	Z12	X13	Y13	Z13	X14	Y14	Z14	X15	Y15	Z15	X16	Y16	Z16	X17	Y17	Z17	X18	Y18	Z18	X19	Y19	Z19	X20	Y20	Z20	X21	Y21	Z21	X22	Y22	Z22	X23	Y23	Z23	X24	Y24	Z24	X25	Y25	Z25	X26	Y26	Z26	X27	Y27	Z27	X28	Y28	Z28	X29	Y29	Z29	X30	Y30	Z30	X31	Y31	Z31	X32	Y32	Z32	X33	Y33	Z33	X34	Y34	Z34	X35	Y35	Z35	X36	Y36	Z36	X37	Y37	Z37	X38	Y38	Z38	X39	Y39	Z39	X40	Y40	Z40	X41	Y41	Z41	X42	Y42	Z42	X43	Y43	Z43	X44	Y44	Z44	X45	Y45	Z45	

142	1.410	-946.21875	-298.59875	1657.92407	-1077.63379	-304.74188	1646.59680	-951.42169	-167.58620	1598.12305	-1080.79822	-175.26254	1592.66370	-1004.50287	-174.20045	1439.87537	-1011.69519	-147.68604	1111.16943	-1006.43964	-287.21402	1367.04504	-998.59222	-331.60977	1192.45410	-1077.97266	-104.49206	1269.47717	-845.22235	-228.47241	1395.31812	-773.15039	-262.66449	1197.13379	-759.85522	-289.34055	1088.31604	-741.05878	-399.73419	989.84552	-786.27521	-521.62823	958.03052	-752.90277	-485.36993	907.25446	-749.80200	-572.85669	887.76740	-1167.82251	-237.54863	1398.76172	-1249.88953	-164.14934	1209.82324	-1262.77039	-152.01973	1087.94897	-1283.43750	-141.65300	968.57080	-1264.18372	-175.02213	818.45929	-1294.94336	-116.72147	832.94788	-1302.76636	-133.96544	750.33478	-899.64178	-320.06824	947.04218	-1118.31433	-336.34451	968.08240	-935.10571	-165.25714	974.22516	-1102.18347	-181.44937	986.13519	-857.11420	-230.03656	627.07086	-879.93738	-213.30701	463.15244	-890.34979	-36.02478	276.34030	-930.30438	73.81264	144.73146	-977.33160	113.95732	155.55249	-928.39288	-22.57074	39.10741	-1183.21924	-346.22318	640.79968	-1151.95386	-381.54437	522.00348	-1158.51270	-372.82593	254.05634	-1114.72205	-376.41422	67.30172	-1071.43018	-337.94598	41.46712	-1100.73706	-530.60486	36.57422	-1009.91925	-199.88942	1692.35718															 
143	1.420	-947.15448	-308.67407	1659.23584	-1078.41553	-314.86758	1647.60754	-952.58612	-177.45512	1599.82910	-1081.69153	-185.40405	1593.75610	-1005.80170	-183.82306	1441.18750	-1013.01044	-157.83051	1112.58777	-1007.05109	-297.07132	1368.40881	-999.22430	-341.77179	1193.95166	-1079.53564	-114.92216	1271.13123	-846.33398	-237.54910	1396.70862	-774.95825	-271.38983	1198.44031	-762.37128	-296.45676	1089.03540	-743.68860	-405.05554	988.71576	-788.03717	-527.04865	954.89600	-754.46991	-489.91537	905.04773	-751.88770	-576.80310	883.37225	-1168.50952	-248.38489	1400.42761	-1251.31970	-176.19632	1211.28467	-1263.87537	-164.70963	1089.31506	-1284.32178	-155.48119	969.82422	-1264.25146	-191.04427	820.42529	-1295.61865	-131.97406	833.95044	-1302.98254	-150.09471	751.35333	-900.70233	-330.18976	948.43286	-1119.48792	-346.56656	969.59467	-936.52454	-175.53268	975.22809	-1103.53479	-192.07906	987.54590	-857.86542	-244.54076	627.28088	-880.03070	-231.42461	463.17883	-892.22095	-50.52578	281.53244	-932.45703	62.51043	153.02298	-980.59833	100.90420	165.47643	-929.34314	-26.11879	40.46294	-1183.51807	-354.04892	640.94727	-1152.61292	-387.85474	521.86432	-1158.38452	-375.46011	253.99606	-1114.38623	-376.83835	67.56997	-1071.25598	-338.13318	41.64750	-1100.35938	-531.29065	35.94184	-1011.01849	-210.05421	1693.71716															 
144	1.430	-947.98926	-318.62799	1660.48132	-1079.24622	-324.91434	1648.65063	-953.23083	-187.38947	1601.13684	-1082.61646	-195.39545	1595.02112	-1006.78418	-193.68129	1442.46729	-1014.36035	-167.87962	1113.94507	-1007.55756	-306.84033	1369.73779	-999.75000	-351.87305	1195.36243	-1081.12878	-125.32577	1272.62683	-847.29712	-246.47609	1397.90625	-776.61328	-279.78903	1199.50049	-764.82373	-303.21304	1089.45654	-745.81195	-410.36237	987.19318	-789.69891	-532.02753	951.31738	-756.43420	-493.74173	901.94641	-753.86316	-580.38635	878.60254	-1169.15100	-259.19412	1401.98767	-1252.73535	-188.25400	1212.65283	-1265.03210	-177.34209	1090.59229	-1285.22253	-169.38258	970.93970	-1264.39771	-205.65344	821.60132	-1296.11829	-147.53610	834.65790	-1302.82788	-166.10658	752.06775	-901.82507	-340.17657	949.83014	-1120.66907	-356.84167	970.72784	-937.91449	-185.54851	976.18707	-1104.95496	-201.95934	989.31964	-858.42053	-258.81934	627.63690	-879.97235	-248.95427	463.49323	-893.71741	-65.29622	286.74786	-934.31134	50.63515	161.09630	-983.27802	87.49983	175.17508	-930.15491	-31.27364	43.39677	-1184.55078	-361.86526	641.57861	-1153.34302	-393.61530	521.64960	-1158.57202	-377.68173	253.88091	-1114.35608	-377.45212	67.46632	-1071.09937	-338.31003	41.82873	-1100.18506	-531.84827	35.47094	-1012.02698	-220.13739	1694.99658															 
145	1.440	-948.71967	-328.44037	1661.73291	-1079.85522	-334.78094	1649.63318	-954.04285	-197.19731	1602.46375	-1083.31128	-205.28502	1596.08313	-1007.74701	-203.48195	1443.35840	-1015.79041	-177.91653	1115.07507	-1007.98706	-316.66568	1371.01794	-1000.38397	-361.78122	1196.65686	-1083.06824	-135.53804	1273.85352	-848.12659	-255.11577	1398.89758	-778.38049	-287.33575	1200.05127	-767.14618	-309.77896	1089.59131	-747.52850	-415.29318	985.32178	-791.15753	-536.58588	947.28937	-757.73132	-497.00427	898.58191	-755.72943	-583.53137	873.29657	-1169.84167	-270.01529	1403.61560	-1254.18689	-200.38934	1213.90466	-1266.25525	-189.80354	1091.77271	-1286.04492	-183.44972	971.89850	-1264.32007	-221.46033	823.19128	-1296.61743	-163.28709	835.42065	-1302.82629	-182.97693	752.95319	-902.80109	-350.04312	951.16058	-1121.77148	-367.09131	971.53027	-939.30627	-195.44708	977.07446	-1106.23926	-212.31065	990.54401	-858.91858	-272.84286	628.06244	-879.87183	-266.15533	464.15353	-894.66846	-80.14728	291.94699	-936.21503	38.20914	169.11774	-985.54425	73.67944	184.55763	-931.15314	-37.86666	47.34702	-1185.17444	-368.76138	641.79865	-1154.29272	-399.23404	521.51654	-1158.92285	-379.72345	253.72491	-1113.92126	-377.51962	67.66180	-1070.94971	-338.42966	41.99329	-1100.19360	-532.12292	35.12022	-1012.93860	-230.06068	1696.28247															 
